<svg width="63" height="58" viewBox="0 0 63 58" fill="none" xmlns="http://www.w3.org/2000/svg">
<path d="M3.03409 46V11.0909H16.8068C19.4545 11.0909 21.7102 11.5966 23.5739 12.608C25.4375 13.608 26.858 15 27.8352 16.7841C28.8239 18.5568 29.3182 20.6023 29.3182 22.9205C29.3182 25.2386 28.8182 27.2841 27.8182 29.0568C26.8182 30.8295 25.3693 32.2102 23.4716 33.1989C21.5852 34.1875 19.3011 34.6818 16.6193 34.6818H7.84091V28.767H15.4261C16.8466 28.767 18.017 28.5227 18.9375 28.0341C19.8693 27.5341 20.5625 26.8466 21.017 25.9716C21.483 25.0852 21.7159 24.0682 21.7159 22.9205C21.7159 21.7614 21.483 20.75 21.017 19.8864C20.5625 19.0114 19.8693 18.3352 18.9375 17.858C18.0057 17.3693 16.8239 17.125 15.392 17.125H10.4148V46H3.03409ZM53.0497 21.1307C52.9134 19.7557 52.3281 18.6875 51.294 17.9261C50.2599 17.1648 48.8565 16.7841 47.0838 16.7841C45.8793 16.7841 44.8622 16.9545 44.0327 17.2955C43.2031 17.625 42.5668 18.0852 42.1236 18.6761C41.6918 19.267 41.4759 19.9375 41.4759 20.6875C41.4531 21.3125 41.5838 21.858 41.8679 22.3239C42.1634 22.7898 42.5668 23.1932 43.0781 23.5341C43.5895 23.8636 44.1804 24.1534 44.8509 24.4034C45.5213 24.642 46.2372 24.8466 46.9986 25.017L50.1349 25.767C51.6577 26.108 53.0554 26.5625 54.3281 27.1307C55.6009 27.6989 56.7031 28.3977 57.6349 29.2273C58.5668 30.0568 59.2884 31.0341 59.7997 32.1591C60.3224 33.2841 60.5895 34.5739 60.6009 36.0284C60.5895 38.1648 60.044 40.017 58.9645 41.5852C57.8963 43.142 56.3509 44.3523 54.3281 45.2159C52.3168 46.0682 49.8906 46.4943 47.0497 46.4943C44.2315 46.4943 41.777 46.0625 39.6861 45.1989C37.6065 44.3352 35.9815 43.0568 34.8111 41.3636C33.652 39.6591 33.044 37.5511 32.9872 35.0398H40.1293C40.2088 36.2102 40.544 37.1875 41.1349 37.9716C41.7372 38.7443 42.5384 39.3295 43.5384 39.7273C44.5497 40.1136 45.6918 40.3068 46.9645 40.3068C48.2145 40.3068 49.2997 40.125 50.2202 39.7614C51.152 39.3977 51.8736 38.892 52.3849 38.2443C52.8963 37.5966 53.152 36.8523 53.152 36.0114C53.152 35.2273 52.919 34.5682 52.4531 34.0341C51.9986 33.5 51.3281 33.0455 50.4418 32.6705C49.5668 32.2955 48.4929 31.9545 47.2202 31.6477L43.419 30.6932C40.4759 29.9773 38.152 28.858 36.4474 27.3352C34.7429 25.8125 33.8963 23.7614 33.9077 21.1818C33.8963 19.0682 34.4588 17.2216 35.5952 15.642C36.7429 14.0625 38.3168 12.8295 40.3168 11.9432C42.3168 11.0568 44.5895 10.6136 47.1349 10.6136C49.7259 10.6136 51.9872 11.0568 53.919 11.9432C55.8622 12.8295 57.3736 14.0625 58.4531 15.642C59.5327 17.2216 60.0895 19.0511 60.1236 21.1307H53.0497Z" fill="white"/>
</svg>
